<svg width="32" height="32" viewBox="0 0 32 32" fill="none" xmlns="http://www.w3.org/2000/svg">
<path d="M16 0C7.17869 0 0 7.17731 0 16C0 24.8213 7.17869 32 16 32C24.8227 32 32 24.8213 32 16C32 7.17731 24.8227 0 16 0ZM25.2307 16.5093C25.1627 16.672 25.0654 16.82 24.9427 16.9426L19.6094 22.2759C19.3494 22.5359 19.0081 22.6666 18.6667 22.6666C18.3254 22.6666 17.9854 22.5359 17.724 22.2759C17.204 21.7546 17.204 20.9106 17.724 20.3906L20.7813 17.3333H8C7.264 17.3333 6.66669 16.736 6.66669 16C6.66669 15.2627 7.264 14.6667 8 14.6667H20.7813L17.724 11.6094C17.204 11.0881 17.204 10.2441 17.724 9.72406C18.2453 9.20275 19.0893 9.20275 19.6093 9.72406L24.9426 15.0561C25.0653 15.1788 25.1626 15.3268 25.2306 15.4908C25.3653 15.816 25.3653 16.1827 25.2307 16.5093Z" fill="#005482"/>
</svg>
