<svg width="20" height="22" viewBox="0 0 20 22" fill="none" xmlns="http://www.w3.org/2000/svg">
<path fill-rule="evenodd" clip-rule="evenodd" d="M2.09752 17.5311C0.317845 15.5742 -0.168468 13.0987 0.0480567 10.8871C0.286582 8.44743 1.39931 6.10734 2.84783 4.89966C4.78382 3.28672 6.81707 2.62441 8.58169 2.3002C9.44099 2.15274 10.3064 2.04341 11.1754 1.97252C11.6431 1.92852 12.1167 1.88452 12.5718 1.77105C13.5305 1.53136 14.4765 1.14231 15.2558 0.524001C15.6124 0.240319 15.9736 -0.0468373 16.4542 0.00642549C16.6269 0.0256422 16.7931 0.083498 16.9404 0.175702C17.0877 0.267907 17.2124 0.392094 17.3052 0.539054C21.0105 6.40607 20.4512 12.6343 17.3562 16.5573C15.8104 18.5153 13.6393 19.8816 11.107 20.2857C8.89779 20.6365 6.4836 20.244 4.05087 18.9703C3.83716 19.6347 3.67838 20.3155 3.57614 21.0059C3.53269 21.3099 3.37024 21.5842 3.12454 21.7685C2.87884 21.9527 2.57001 22.0318 2.26599 21.9883C1.96197 21.9449 1.68766 21.7824 1.50342 21.5367C1.31917 21.291 1.24007 20.9822 1.28352 20.6782C1.4271 19.6766 1.70036 18.6102 2.09752 17.5311ZM8.99853 4.57777C9.81368 4.4284 10.579 4.35661 11.3224 4.28366C11.9291 4.22577 12.5405 4.16556 13.1333 4.01735C14.1319 3.77318 15.0882 3.38053 15.9702 2.85251C18.4921 7.61954 17.7881 12.2708 15.5383 15.1238C14.3248 16.6615 12.6563 17.6943 10.7446 17.9977C9.02748 18.2709 7.03938 17.9699 4.92045 16.8097C6.20802 14.1848 8.31306 11.6687 11.0538 10.2989C11.3286 10.1616 11.5377 9.92079 11.635 9.62938C11.7322 9.33797 11.7098 9.01985 11.5725 8.74501C11.4352 8.47016 11.1944 8.2611 10.903 8.16382C10.6116 8.06654 10.2935 8.089 10.0186 8.22627C6.99886 9.73616 4.6854 12.3472 3.1813 15.1319C2.43909 13.9161 2.21678 12.5024 2.35341 11.1117C2.54909 9.1109 3.46498 7.4007 4.32993 6.67817C5.8676 5.39639 7.48864 4.85566 8.99969 4.57777H8.99853Z" fill="#0B151C"/>
</svg>
