<svg width="24" height="24" viewBox="0 0 24 24" fill="none" xmlns="http://www.w3.org/2000/svg">
<path d="M12.9265 8.09576H12.1173V7.31594C12.1215 7.21101 12.1044 7.10633 12.0671 7.00817C12.0298 6.91 11.9731 6.82038 11.9003 6.74468C11.8276 6.66897 11.7403 6.60874 11.6437 6.5676C11.547 6.52646 11.4431 6.50525 11.3381 6.50525C11.2331 6.50525 11.1292 6.52646 11.0326 6.5676C10.936 6.60874 10.8487 6.66897 10.7759 6.74468C10.7031 6.82038 10.6464 6.91 10.6091 7.00817C10.5718 7.10633 10.5547 7.21101 10.5589 7.31594V8.09576H9.74944C9.54812 8.10373 9.3577 8.18931 9.21809 8.33457C9.07847 8.47983 9.00049 8.67348 9.00049 8.87496C9.00049 9.07644 9.07847 9.27009 9.21809 9.41535C9.3577 9.56061 9.54812 9.64619 9.74944 9.65417H10.5589V10.434C10.5547 10.5389 10.5718 10.6436 10.6091 10.7418C10.6464 10.8399 10.7031 10.9295 10.7759 11.0052C10.8487 11.081 10.936 11.1412 11.0326 11.1823C11.1292 11.2235 11.2331 11.2447 11.3381 11.2447C11.4431 11.2447 11.547 11.2235 11.6437 11.1823C11.7403 11.1412 11.8276 11.081 11.9003 11.0052C11.9731 10.9295 12.0298 10.8399 12.0671 10.7418C12.1044 10.6436 12.1215 10.5389 12.1173 10.434V9.65417H12.9265C13.0314 9.65833 13.1361 9.64125 13.2342 9.60397C13.3324 9.56668 13.422 9.50995 13.4977 9.43718C13.5734 9.36442 13.6337 9.27711 13.6748 9.1805C13.716 9.08389 13.7372 8.97997 13.7372 8.87496C13.7372 8.76995 13.716 8.66603 13.6748 8.56942C13.6337 8.47281 13.5734 8.38551 13.4977 8.31274C13.422 8.23998 13.3324 8.18324 13.2342 8.14596C13.1361 8.10867 13.0314 8.0916 12.9265 8.09576Z" fill="#0B151C"/>
<path d="M16.1643 4.25777C15.8311 3.41422 15.2522 2.69019 14.5027 2.17951C13.7532 1.66884 12.8675 1.39505 11.9605 1.39365H10.7132C9.51424 1.39518 8.36482 1.87215 7.51703 2.71994C6.66924 3.56773 6.19227 4.71715 6.19074 5.91611V8.24273C5.04179 7.00486 3.84975 6.68707 2.93792 6.68707C2.41575 6.68089 1.89876 6.79102 1.42443 7.00944C1.24534 7.10114 1.10862 7.2585 1.04285 7.44865C0.977076 7.63879 0.987332 7.847 1.07149 8.02975L2.17155 10.4196C2.23373 10.5548 2.33334 10.6694 2.4586 10.7498C2.58386 10.8301 2.72952 10.8729 2.87834 10.8731C3.06751 10.8741 3.24863 10.9498 3.38223 11.0837C3.51582 11.2176 3.59106 11.399 3.59154 11.5881C3.59031 11.7569 3.52838 11.9196 3.41706 12.0465C3.32082 12.1598 3.25894 12.2983 3.23869 12.4456C3.21844 12.5929 3.24068 12.7429 3.30277 12.878C3.30277 12.878 5.78953 18.2218 6.62313 20.0005C6.98704 20.7782 7.56498 21.4362 8.28928 21.8973C9.01358 22.3584 9.85426 22.6037 10.7129 22.6043H11.9605C13.1596 22.6029 14.3091 22.126 15.1569 21.2782C16.0047 20.4304 16.4816 19.2808 16.483 18.0818C17.2038 19.0021 18.1717 19.6982 19.2735 20.0885C19.7486 20.2454 20.2457 20.3256 20.746 20.326C21.3766 20.3334 22.0012 20.2023 22.5755 19.9419C22.7546 19.8503 22.8914 19.693 22.9572 19.5029C23.0229 19.3127 23.0127 19.1046 22.9284 18.9219L16.1643 4.25777ZM6.19043 15.2296L4.90031 12.6164C5.06467 12.2987 5.15078 11.9464 5.15149 11.5887C5.15069 11.0783 4.9786 10.583 4.6628 10.182C4.34699 9.78105 3.90573 9.49769 3.40973 9.37732L2.89026 8.2467C2.90615 8.2467 2.92264 8.2467 2.93914 8.2467C4.12415 8.2467 5.30336 9.14478 6.19196 10.8462L6.19043 15.2296ZM11.9609 21.0438H10.7132C9.92726 21.0432 9.17367 20.7307 8.61793 20.175C8.06219 19.6192 7.74972 18.8656 7.74916 18.0797V5.91794C7.7498 5.13203 8.06229 4.37849 8.61801 3.82276C9.17374 3.26703 9.92728 2.95454 10.7132 2.9539H11.9602C12.7461 2.95463 13.4996 3.26714 14.0553 3.82285C14.611 4.37856 14.9236 5.13205 14.9243 5.91794V18.0831C14.9227 18.8683 14.6099 19.6209 14.0544 20.1759C13.499 20.7308 12.7461 21.0429 11.9609 21.0438ZM16.4833 15.211V8.65189L21.1311 18.7452C20.0998 18.8669 18.171 18.5463 16.4836 15.2116L16.4833 15.211Z" fill="#0B151C"/>
</svg>
