<svg width="24" height="24" viewBox="0 0 24 24" fill="none" xmlns="http://www.w3.org/2000/svg">
<path d="M22.7312 21.4327L16.9407 15.6429L18.8703 12.4992C19.4258 11.6798 19.4826 10.6285 19.0197 9.75413C18.5559 8.87975 17.653 8.33624 16.6648 8.33624L13.1513 8.33349L14.2559 3.54272C14.5391 2.55469 14.1285 1.55199 13.2806 1.15971C12.4739 0.786675 11.571 1.08088 11.0137 1.91677L8.04742 6.7497L2.56495 1.26878C2.20654 0.910408 1.62722 0.910408 1.26881 1.26878C0.910398 1.62714 0.910398 2.2064 1.26881 2.56477L21.4351 22.7287C21.6138 22.9074 21.8485 22.9972 22.0831 22.9972C22.3178 22.9972 22.5524 22.9074 22.7312 22.7287C23.0896 22.3703 23.0896 21.7911 22.7312 21.4327ZM12.5023 2.99554C12.4977 3.02212 12.4904 3.05237 12.4812 3.08628L11.1063 9.04381C11.0439 9.31602 11.1081 9.60106 11.2823 9.82012C11.4564 10.0392 11.7204 10.1666 11.9991 10.1666L16.6639 10.1702C17.1167 10.1702 17.3294 10.48 17.4 10.6129C17.4706 10.7458 17.6071 11.0959 17.3303 11.5056L15.607 14.3112L9.3793 8.08419L12.5014 2.99646L12.5023 2.99554ZM14.6619 19.3531L12.9845 22.0835C12.5885 22.6792 12.0156 23 11.4271 23C11.1897 23 10.9495 22.9478 10.7185 22.8405C9.87063 22.4482 9.45997 21.4465 9.74321 20.4575L10.6828 16.3752C10.7974 15.8812 11.2905 15.5733 11.7818 15.6878C12.275 15.8015 12.583 16.2937 12.4693 16.7868L11.5169 20.9149C11.5078 20.9479 11.5004 20.9772 11.4958 21.0047L13.0991 18.3925C13.3631 17.9599 13.9268 17.827 14.3595 18.091C14.7912 18.3559 14.9259 18.9205 14.661 19.3522L14.6619 19.3531ZM10.1667 15.6686H7.3361C6.34612 15.6686 5.44414 15.1251 4.98031 14.2507C4.51649 13.3763 4.57424 12.3232 5.12973 11.5047L5.68246 10.6028C5.94738 10.1721 6.51295 10.0383 6.94285 10.3013C7.3746 10.5662 7.50934 11.1308 7.24535 11.5625L6.67061 12.4992C6.39378 12.9079 6.53036 13.259 6.60095 13.3928C6.67153 13.5266 6.88419 13.8355 7.33701 13.8355H10.1676C10.6736 13.8355 11.0843 14.2452 11.0843 14.752C11.0843 15.2589 10.6736 15.6686 10.1676 15.6686H10.1667Z" fill="#0B151C"/>
</svg>
