<svg width="24" height="24" viewBox="0 0 24 24" fill="none" xmlns="http://www.w3.org/2000/svg">
<path fill-rule="evenodd" clip-rule="evenodd" d="M15.7906 0.628051C16.628 -0.20935 17.9857 -0.20935 18.8232 0.628051L23.3719 5.17682C24.2094 6.01423 24.2094 7.37193 23.3719 8.20934L8.20934 23.3719C7.37193 24.2094 6.01423 24.2094 5.17682 23.3719L0.628053 18.8232C-0.209351 17.9857 -0.20935 16.628 0.628053 15.7906L15.7906 0.628051ZM16.5487 2.90244C16.9675 2.48374 17.6463 2.48374 18.0651 2.90244L21.0975 5.93495C21.5162 6.35366 21.5162 7.03251 21.0975 7.45121L20.3394 6.69309C19.9207 6.27438 19.2419 6.27438 18.8232 6.69309C18.4044 7.11178 18.4044 7.79064 18.8232 8.20934L19.5813 8.96747L18.0651 10.4837L15.7906 8.20934C15.3719 7.79064 14.693 7.79064 14.2743 8.20934C13.8557 8.62805 13.8557 9.3069 14.2743 9.72559L16.5487 12L15.0325 13.5162L14.2743 12.7581C13.8557 12.3394 13.1768 12.3394 12.7581 12.7581C12.3394 13.1768 12.3394 13.8557 12.7581 14.2743L13.5162 15.0325L12 16.5488L9.72559 14.2743C9.3069 13.8557 8.62804 13.8557 8.20934 14.2743C7.79064 14.6931 7.79064 15.3719 8.20934 15.7906L10.4837 18.065L8.96747 19.5813L8.20934 18.8232C7.79064 18.4045 7.11179 18.4045 6.69309 18.8232C6.27438 19.2418 6.27438 19.9207 6.69309 20.3394L7.45121 21.0975C7.03251 21.5162 6.35365 21.5162 5.93495 21.0975L2.90244 18.065C2.48374 17.6463 2.48374 16.9675 2.90244 16.5488L16.5487 2.90244Z" fill="#0B151C"/>
</svg>
