<svg width="24" height="24" viewBox="0 0 24 24" fill="black" xmlns="http://www.w3.org/2000/svg">
<path d="M21 13H3C2.73478 13 2.48043 12.8946 2.29289 12.7071C2.10536 12.5196 2 12.2652 2 12C2 11.7348 2.10536 11.4804 2.29289 11.2929C2.48043 11.1054 2.73478 11 3 11H21C21.2652 11 21.5196 11.1054 21.7071 11.2929C21.8946 11.4804 22 11.7348 22 12C22 12.2652 21.8946 12.5196 21.7071 12.7071C21.5196 12.8946 21.2652 13 21 13Z"/>
<path d="M8.29995 5.75L11.3 8.7C11.3889 8.79699 11.4971 8.87443 11.6176 8.92741C11.7381 8.98038 11.8683 9.00774 12 9.00774C12.1316 9.00774 12.2618 8.98038 12.3823 8.92741C12.5028 8.87443 12.611 8.79699 12.7 8.7L15.7 5.75C15.8732 5.57293 15.9782 5.34031 15.9965 5.09327C16.0148 4.84622 15.9452 4.60066 15.8 4.4C15.719 4.2795 15.6116 4.17914 15.4858 4.10664C15.36 4.03414 15.2193 3.99142 15.0745 3.98176C14.9297 3.97211 14.7845 3.99577 14.6503 4.05094C14.516 4.1061 14.3962 4.19131 14.3 4.3L13 5.6V2C13 1.73478 12.8946 1.48043 12.7071 1.29289C12.5195 1.10536 12.2652 1 12 1C11.7347 1 11.4804 1.10536 11.2928 1.29289C11.1053 1.48043 11 1.73478 11 2V5.6L9.69995 4.3C9.60374 4.19131 9.4839 4.1061 9.34963 4.05094C9.21537 3.99577 9.07024 3.97211 8.9254 3.98176C8.78057 3.99142 8.63987 4.03414 8.51411 4.10664C8.38835 4.17914 8.28088 4.2795 8.19995 4.4C8.05469 4.60066 7.98506 4.84622 8.00336 5.09327C8.02166 5.34031 8.12671 5.57293 8.29995 5.75Z"/>
<path d="M15.7 18.25L12.7 15.3C12.611 15.203 12.5028 15.1256 12.3823 15.0726C12.2618 15.0196 12.1316 14.9922 12 14.9922C11.8683 14.9922 11.7381 15.0196 11.6176 15.0726C11.4971 15.1256 11.3889 15.203 11.3 15.3L8.29995 18.25C8.12671 18.4271 8.02166 18.6597 8.00336 18.9067C7.98506 19.1538 8.05469 19.3993 8.19995 19.6C8.28088 19.7205 8.38835 19.8208 8.51411 19.8933C8.63987 19.9658 8.78057 20.0086 8.9254 20.0182C9.07024 20.0279 9.21537 20.0042 9.34963 19.949C9.4839 19.8939 9.60374 19.8087 9.69995 19.7L11 18.4V22C11 22.2652 11.1053 22.5196 11.2928 22.7071C11.4804 22.8946 11.7347 23 12 23C12.2652 23 12.5195 22.8946 12.7071 22.7071C12.8946 22.5196 13 22.2652 13 22V18.4L14.3 19.7C14.3962 19.8087 14.516 19.8939 14.6503 19.949C14.7845 20.0042 14.9297 20.0279 15.0745 20.0182C15.2193 20.0086 15.36 19.9658 15.4858 19.8933C15.6116 19.8208 15.719 19.7205 15.8 19.6C15.9452 19.3993 16.0148 19.1538 15.9965 18.9067C15.9782 18.6597 15.8732 18.4271 15.7 18.25Z"/>
</svg>
