<svg width="32" height="32" viewBox="0 0 32 32" fill="none" xmlns="http://www.w3.org/2000/svg">
<path d="M16 0C24.8368 0 32 7.1632 32 16C32 24.8368 24.8368 32 16 32C7.1632 32 0 24.8368 0 16C0 7.1632 7.1632 0 16 0ZM12.6064 10.3424C12.3191 10.0524 11.9319 9.88315 11.5239 9.86931C11.116 9.85547 10.7181 9.99807 10.4119 10.2679C10.1056 10.5378 9.91408 10.9145 9.87647 11.321C9.83887 11.7275 9.95804 12.1329 10.2096 12.4544L10.344 12.6064L13.736 15.9984L10.344 19.3936C10.054 19.6809 9.88475 20.0681 9.87091 20.4761C9.85707 20.884 9.99968 21.2819 10.2695 21.5881C10.5394 21.8944 10.9161 22.0859 11.3226 22.1235C11.7291 22.1611 12.1345 22.042 12.456 21.7904L12.6064 21.6576L16 18.2624L19.3936 21.6576C19.6809 21.9476 20.0681 22.1169 20.4761 22.1307C20.884 22.1445 21.2819 22.0019 21.5881 21.7321C21.8944 21.4622 22.0859 21.0855 22.1235 20.679C22.1611 20.2725 22.042 19.8671 21.7904 19.5456L21.6576 19.3936L18.2624 16L21.6576 12.6064C21.9476 12.3191 22.1169 11.9319 22.1307 11.5239C22.1445 11.116 22.0019 10.7181 21.7321 10.4119C21.4622 10.1056 21.0855 9.91408 20.679 9.87647C20.2725 9.83887 19.8671 9.95804 19.5456 10.2096L19.3936 10.3424L16 13.7376L12.6064 10.3424Z" fill="#005482"/>
</svg>
